{
    "asset" : {
        "generator" : "Khronos glTF Blender I/O v1.7.33",
        "version" : "2.0"
    },
    "scene" : 0,
    "scenes" : [
        {
            "name" : "Scene",
            "nodes" : [
                0,
                2
            ]
        }
    ],
    "nodes" : [
        {
            "name" : "Empty",
            "translation" : [
                0,
                1.0012874603271484,
                0
            ]
        },
        {
            "mesh" : 0,
            "name" : "Vert",
            "scale" : [
                1.0005533695220947,
                1.0005533695220947,
                0.476336270570755
            ],
            "translation" : [
                0,
                0,
                0.18066339194774628
            ]
        },
        {
            "children" : [
                1
            ],
            "mesh" : 1,
            "name" : "Plane.013",
            "scale" : [
                0.9994469285011292,
                0.9994469285011292,
                0.9994469285011292
            ],
            "translation" : [
                -0.0071239471435546875,
                0.9974079132080078,
                0.026581212878227234
            ]
        }
    ],
    "materials" : [
        {
            "doubleSided" : true,
            "name" : "PUTIH.007",
            "pbrMetallicRoughness" : {
                "baseColorFactor" : [
                    0.550000011920929,
                    0.550000011920929,
                    0.550000011920929,
                    1
                ],
                "metallicFactor" : 0,
                "roughnessFactor" : 0.5
            }
        },
        {
            "doubleSided" : true,
            "name" : "Material.055",
            "pbrMetallicRoughness" : {
                "baseColorFactor" : [
                    0.07915638387203217,
                    0.16056230664253235,
                    0.0031820288859307766,
                    1
                ],
                "metallicFactor" : 0,
                "roughnessFactor" : 0.6000000238418579
            }
        }
    ],
    "meshes" : [
        {
            "name" : "Vert.005",
            "primitives" : [
                {
                    "attributes" : {
                        "POSITION" : 0,
                        "NORMAL" : 1
                    },
                    "indices" : 2,
                    "material" : 0
                }
            ]
        },
        {
            "name" : "Plane.058",
            "primitives" : [
                {
                    "attributes" : {
                        "POSITION" : 3,
                        "NORMAL" : 4,
                        "TEXCOORD_0" : 5
                    },
                    "indices" : 6,
                    "material" : 1
                }
            ]
        }
    ],
    "accessors" : [
        {
            "bufferView" : 0,
            "componentType" : 5126,
            "count" : 16652,
            "max" : [
                0.5605894923210144,
                0.5588862895965576,
                0.08288819342851639
            ],
            "min" : [
                -0.5655853748321533,
                -0.5939274430274963,
                -0.08288802951574326
            ],
            "type" : "VEC3"
        },
        {
            "bufferView" : 1,
            "componentType" : 5126,
            "count" : 16652,
            "type" : "VEC3"
        },
        {
            "bufferView" : 2,
            "componentType" : 5123,
            "count" : 99840,
            "type" : "SCALAR"
        },
        {
            "bufferView" : 3,
            "componentType" : 5126,
            "count" : 10360,
            "max" : [
                0.9384196400642395,
                0.9364221096038818,
                0.14118097722530365
            ],
            "min" : [
                -0.9384196996688843,
                -0.9364219903945923,
                -0.1411808580160141
            ],
            "type" : "VEC3"
        },
        {
            "bufferView" : 4,
            "componentType" : 5126,
            "count" : 10360,
            "type" : "VEC3"
        },
        {
            "bufferView" : 5,
            "componentType" : 5126,
            "count" : 10360,
            "type" : "VEC2"
        },
        {
            "bufferView" : 6,
            "componentType" : 5123,
            "count" : 57600,
            "type" : "SCALAR"
        }
    ],
    "bufferViews" : [
        {
            "buffer" : 0,
            "byteLength" : 199824,
            "byteOffset" : 0
        },
        {
            "buffer" : 0,
            "byteLength" : 199824,
            "byteOffset" : 199824
        },
        {
            "buffer" : 0,
            "byteLength" : 199680,
            "byteOffset" : 399648
        },
        {
            "buffer" : 0,
            "byteLength" : 124320,
            "byteOffset" : 599328
        },
        {
            "buffer" : 0,
            "byteLength" : 124320,
            "byteOffset" : 723648
        },
        {
            "buffer" : 0,
            "byteLength" : 82880,
            "byteOffset" : 847968
        },
        {
            "buffer" : 0,
            "byteLength" : 115200,
            "byteOffset" : 930848
        }
    ],
    "buffers" : [
        {
            "byteLength" : 1046048,
            "uri" : "data:application/octet-stream;base64,"
        }
    ]
}
